<svg width="800" height="800" viewBox="0 0 800 800" fill="none" xmlns="http://www.w3.org/2000/svg">
<path d="M406.829 127.969C406.166 126.883 405.254 125.971 404.168 125.309C400.397 123.007 395.474 124.198 393.172 127.969L62.7017 669.433C61.9355 670.688 61.5303 672.13 61.5306 673.601C61.5306 678.019 65.1126 681.601 69.5306 681.601H730.471C731.942 681.601 733.384 681.195 734.639 680.43C738.41 678.128 739.602 673.205 737.3 669.434L406.83 127.97L406.829 127.969ZM440.972 107.13L771.442 648.594C785.253 671.222 778.105 700.761 755.477 714.572C747.946 719.168 739.293 721.6 730.47 721.6H69.5298C43.0204 721.6 21.5298 700.109 21.5298 673.6C21.53 664.777 23.9617 656.125 28.5579 648.594L359.028 107.13C372.839 84.5023 402.378 77.3546 425.006 91.1648C431.522 95.1414 436.995 100.615 440.972 107.13ZM400 608C417.674 608 432 593.673 432 576C432 558.327 417.674 544 400 544C382.327 544 368 558.327 368 576C368 593.673 382.327 608 400 608ZM400 264C382.327 264 368 278.327 368 296V472C368 489.673 382.327 504 400 504C417.674 504 432 489.673 432 472V296C432 278.327 417.674 264 400 264Z" fill="#FF1919"/>
</svg>
